<?xml version="1.0" encoding="utf-8"?>
<!-- Generator: Adobe Illustrator 17.1.0, SVG Export Plug-In . SVG Version: 6.00 Build 0)  -->
<!DOCTYPE svg PUBLIC "-//W3C//DTD SVG 1.1//EN" "http://www.w3.org/Graphics/SVG/1.1/DTD/svg11.dtd">
<svg version="1.1" id="icon" xmlns="http://www.w3.org/2000/svg" xmlns:xlink="http://www.w3.org/1999/xlink" x="0px" y="0px"
	 viewBox="0 0 300 300" enable-background="new 0 0 300 300" xml:space="preserve">
<g id="JS_1_">
	
		<linearGradient id="SVGID_1_" gradientUnits="userSpaceOnUse" x1="364.4016" y1="163.2005" x2="360.8896" y2="213.4258" gradientTransform="matrix(1.5 0 0 -1.5 -400.5 452.5)">
		<stop  offset="0" style="stop-color:#FFFFFF;stop-opacity:0.7"/>
		<stop  offset="1" style="stop-color:#FFFFFF;stop-opacity:0.9"/>
	</linearGradient>
	<path fill="url(#SVGID_1_)" d="M93.326,192.395l11.94-7.226c2.304,4.084,4.399,7.54,9.426,7.54c4.818,0,7.854-1.885,7.854-9.215
		V133.64h14.663v50.062c0,15.187-8.902,22.1-21.889,22.1C103.59,205.801,96.782,199.727,93.326,192.395 M145.169,190.825
		c4.293,8.484,13.092,14.976,26.707,14.976c13.929,0,24.297-7.226,24.297-20.422c0-12.253-7.017-17.699-19.481-23.041l-3.665-1.571
		c-6.283-2.723-9.006-4.503-9.006-8.903c0-3.56,2.723-6.283,7.017-6.283c4.19,0,6.911,1.78,9.426,6.283l11.416-7.331
		c-4.818-8.484-11.521-11.731-20.842-11.731c-13.092,0-21.472,8.38-21.472,19.377c0,11.94,7.017,17.595,17.597,22.098l3.665,1.571
		c6.703,2.932,10.682,4.712,10.682,9.739c0,4.19-3.873,7.226-9.949,7.226c-7.226,0-11.31-3.771-14.454-8.902L145.169,190.825"/>
</g>
</svg>
