<?xml version="1.0" encoding="utf-8"?>
<!-- Generator: Adobe Illustrator 17.1.0, SVG Export Plug-In . SVG Version: 6.00 Build 0)  -->
<!DOCTYPE svg PUBLIC "-//W3C//DTD SVG 1.1//EN" "http://www.w3.org/Graphics/SVG/1.1/DTD/svg11.dtd">
<svg version="1.1" id="icon" xmlns="http://www.w3.org/2000/svg" xmlns:xlink="http://www.w3.org/1999/xlink" x="0px" y="0px"
	 viewBox="0 0 300 300" enable-background="new 0 0 300 300" xml:space="preserve">
<linearGradient id="SVGID_1_" gradientUnits="userSpaceOnUse" x1="157.5141" y1="225.5366" x2="149.7201" y2="114.0777">
	<stop  offset="0" style="stop-color:#FFFFFF;stop-opacity:0.7"/>
	<stop  offset="1" style="stop-color:#FFFFFF;stop-opacity:0.9"/>
</linearGradient>
<path fill="url(#SVGID_1_)" d="M150.831,114l-52.695,18.545l8.327,69.039L150.887,226l44.653-24.748l8.324-69.036L150.831,114z
	 M190.85,197.949l-40.142,22.216v0.001l-39.523-21.921l-7.135-61.744l46.658-16.631v0.001l47.9,16.334L190.85,197.949z
	 M150.748,123.6l-0.04-0.086l0,0l0,0v0.001l-32.58,72.479l12.151-0.224l6.533-16.339h29.199l7.152,16.566l11.627,0.216
	L150.748,123.6z M150.795,146.753l10.995,23.003h-20.693L150.795,146.753z"/>
</svg>
