<?xml version="1.0" encoding="utf-8"?>
<!-- Generator: Adobe Illustrator 16.0.0, SVG Export Plug-In . SVG Version: 6.00 Build 0)  -->
<!DOCTYPE svg PUBLIC "-//W3C//DTD SVG 1.0//EN" "http://www.w3.org/TR/2001/REC-SVG-20010904/DTD/svg10.dtd">
<svg version="1.0" id="icon" xmlns="http://www.w3.org/2000/svg" xmlns:xlink="http://www.w3.org/1999/xlink" x="0px" y="0px"
	  viewBox="0 0 850.389 850.39" enable-background="new 0 0 850.389 850.39"
	 xml:space="preserve">
<title>Layer 1</title>
<path id="svg_1" fill="#FFFFFF" d="M425.186,390.388c17.986,0,32.57,15.438,32.57,34.483c0,19.054-14.584,34.499-32.57,34.499
	c-17.979,0-32.553-15.445-32.553-34.499C392.633,405.826,407.207,390.388,425.186,390.388z"/>
<path fill="#FFFFFF" d="M425.186,500.446c-21.918,0-42.702-1.343-61.775-3.991c-20.04-2.775-37.831-6.944-52.878-12.393
	c-19.051-6.893-35.167-16.019-46.607-26.393c-11.705-10.62-17.891-21.961-17.891-32.798c0-20.915,23.41-42.55,61.096-56.461
	c15.756-5.818,33.951-10.378,54.081-13.553c20.487-3.229,42.011-4.867,63.974-4.867c43.161,0,84.538,6.423,116.508,18.086
	c18.527,6.756,34.12,15.452,45.094,25.15c11.492,10.158,17.566,21.101,17.566,31.646c0,11.004-6.435,22.429-18.609,33.041
	c-11.756,10.249-28.418,19.337-48.186,26.282C507.698,494.674,467.79,500.446,425.186,500.446z M425.186,359.497
	c-42.926,0-83.745,6.343-114.937,17.861c-17.13,6.324-31.369,14.368-41.179,23.261c-9.033,8.184-13.808,16.57-13.808,24.253
	c0,17.407,23.442,37.589,58.333,50.221c28.621,10.367,67.208,15.847,111.591,15.847c41.613,0,80.465-5.592,109.397-15.744
	c18.673-6.554,34.303-15.036,45.198-24.531c10.034-8.751,15.338-17.67,15.338-25.792c0-16.546-22.179-35.323-56.503-47.835
	C507.599,365.726,467.316,359.497,425.186,359.497z"/>
<path fill="#FFFFFF" d="M351.358,593.381c-6.096,0-11.435-1.373-15.87-4.081c-17.119-10.454-23.137-42.713-15.707-84.187
	c3.111-17.343,8.467-36.294,15.919-56.33c7.593-20.411,17-40.968,27.96-61.101c21.541-39.555,47.449-74.29,72.953-97.804
	c22.755-20.977,45.666-33.008,62.859-33.008c5.777,0,10.864,1.322,15.12,3.929c9.029,5.51,15.177,17.126,17.774,33.59
	c2.505,15.873,1.614,35.664-2.576,57.233c-6.35,32.62-21.552,72.086-42.807,111.13c-10.906,20.044-22.382,38.436-34.107,54.666
	c-12.267,16.981-24.559,31.214-36.536,42.303C393.243,581.113,369.557,593.381,351.358,593.381z M499.473,266.377
	c-14.964,0-35.633,11.15-56.706,30.592c-24.75,22.805-49.985,56.675-71.056,95.372c-21.467,39.425-36.686,80.089-42.854,114.501
	c-3.392,18.938-3.926,36.056-1.546,49.502c2.182,12.397,6.637,20.964,12.884,24.776c2.997,1.827,6.753,2.754,11.163,2.754
	c15.95,0,37.388-11.383,58.816-31.229c22.796-21.099,46.572-53.791,68.761-94.543c20.798-38.2,35.646-76.679,41.809-108.347
	c3.974-20.478,4.845-39.093,2.519-53.834c-2.146-13.597-6.772-22.917-13.378-26.952C507.061,267.25,503.557,266.377,499.473,266.377
	z"/>
<path fill="#FFFFFF" d="M498.973,593.52c-8.524,0-18.212-2.771-28.795-8.236c-10.609-5.486-21.602-13.386-32.673-23.48
	c-12.658-11.543-25.491-25.932-38.142-42.767c-12.928-17.195-25.045-36.097-36.017-56.179
	c-21.605-39.537-37.071-80.644-43.546-115.75c-3.762-20.345-4.468-38.961-2.042-53.836c2.538-15.606,8.451-26.663,17.101-31.971
	c4.384-2.69,9.636-4.055,15.608-4.055c18.297,0,42.554,12.946,66.552,35.519c23.507,22.113,48.201,55.785,69.536,94.811
	c10.972,20.084,20.282,39.799,27.675,58.598c7.775,19.777,13.274,38.155,16.344,54.623c3.905,20.875,4.523,40.183,1.787,55.832
	c-2.811,16.046-8.995,27.408-17.886,32.859C510.118,592.164,504.903,593.52,498.973,593.52z M350.467,266.753
	c-4.289,0-7.952,0.913-10.886,2.714c-13.29,8.143-17.599,38.628-10.726,75.861c6.304,34.128,21.411,74.211,42.537,112.866
	c21.526,39.392,47.179,73.657,72.233,96.486c20.451,18.646,40.624,29.341,55.348,29.341c4.228,0,7.858-0.909,10.792-2.702
	c13.972-8.577,18.807-40.951,11.754-78.725c-5.893-31.487-20.765-69.647-43.009-110.354c-20.852-38.158-44.899-70.988-67.714-92.443
	c-11.391-10.72-22.657-19.083-33.484-24.855C367.27,269.585,357.987,266.753,350.467,266.753z"/>
</svg>
